<?xml version="1.0" standalone="no"?>
<!DOCTYPE svg PUBLIC "-//W3C//DTD SVG 1.1//EN" "http://www.w3.org/Graphics/SVG/1.1/DTD/svg11.dtd" >
<svg xmlns="http://www.w3.org/2000/svg">
<metadata></metadata>
<defs>
<font id="alfabet98normal" horiz-adv-x="664" >
<font-face units-per-em="1000" ascent="800" descent="-200" />
<missing-glyph horiz-adv-x="356" />
<glyph unicode="&#xd;" horiz-adv-x="356" />
<glyph unicode=" "  horiz-adv-x="356" />
<glyph unicode="&#x09;" horiz-adv-x="356" />
<glyph unicode="&#xa0;" horiz-adv-x="356" />
<glyph unicode="!" horiz-adv-x="162" d="M81 128q16 0 28 -12t12 -28v0v-48q0 -17 -11.5 -28.5t-28.5 -11.5t-28.5 11.5t-11.5 28.5v0v48q0 17 11.5 28.5t28.5 11.5zM121 204q0 -16 -12 -28t-28 -12q-17 0 -28.5 11.5t-11.5 28.5v556q0 17 11.5 28.5t28.5 11.5t28.5 -11.5t11.5 -28.5v-556z" />
<glyph unicode="&#x22;" horiz-adv-x="352" d="M129 649q-1 -3 -3 -5v0q-12 -16 -32 -16q-17 0 -28.5 11.5t-11.5 28.5q0 12 7 23l54 86q10 22 36 22q17 0 28.5 -11.5t11.5 -28.5q0 -10 -4 -17h1zM236 588q-2 -2 -3 -4v0q-12 -17 -32 -17q-17 0 -28.5 11.5t-11.5 28.5q0 12 7 23l54 86q11 23 36 23q17 0 28.5 -11.5 t11.5 -28.5q0 -11 -4 -18h1z" />
<glyph unicode="#" horiz-adv-x="286" d="M94 802q17 0 28.5 -11.5t11.5 -28.5v0v0v-5q0 -72 -67 -99q-5 -2 -9 -2q-20 0 -20 21q0 15 13 19v0q20 7 33 28q-30 8 -30 38q0 17 11.5 28.5t28.5 11.5zM208 802q17 0 28.5 -11.5t11.5 -28.5v0v0v-5q0 -72 -67 -99q-5 -2 -9 -2q-20 0 -20 21q0 15 13 19v0q20 7 33 28 q-30 8 -30 38q0 17 11.5 28.5t28.5 11.5z" />
<glyph unicode="$" horiz-adv-x="286" d="M192 656q-17 0 -28.5 11.5t-11.5 28.5v0v0v5q0 72 67 99q5 2 9 2q20 0 20 -20q0 -15 -14 -20v0q-22 -8 -32 -27q30 -7 30 -39q0 -16 -12 -28t-28 -12zM77 656q-17 0 -28 11.5t-11 28.5v0v0v5q0 72 67 99q5 2 9 2q20 0 20 -20q0 -15 -14 -20v0q-22 -8 -32 -27 q29 -8 29 -39q0 -17 -11.5 -28.5t-28.5 -11.5z" />
<glyph unicode="%" horiz-adv-x="512" d="M445 800q17 0 28.5 -11.5t11.5 -28.5q0 -8 -3 -16v0l-382 -727q-12 -17 -33 -17q-17 0 -28.5 11.5t-11.5 28.5q0 7 3 14v0l3 7l375 713q9 26 37 26zM365 240q50 0 85 -35t35 -85t-35 -85t-85 -35t-85 35t-35 85t35 85t85 35zM365 160q-17 0 -28.5 -11.5t-11.5 -28.5 t11.5 -28.5t28.5 -11.5q16 0 28 12t12 28q0 17 -11.5 28.5t-28.5 11.5zM148 800q49 0 84.5 -35.5t35.5 -84.5q0 -50 -35 -85t-85 -35t-85 35t-35 85t35 85t85 35zM148 720q-17 0 -28.5 -11.5t-11.5 -28.5t11.5 -28.5t28.5 -11.5t28.5 11.5t11.5 28.5q0 16 -12 28t-28 12z " />
<glyph unicode="'" horiz-adv-x="160" d="M88 800q17 0 28.5 -11.5t11.5 -28.5v0v0v-5q0 -72 -67 -99q-5 -2 -9 -2q-20 0 -20 20q0 16 13 20v0q21 8 33 27q-30 8 -30 39q0 16 12 28t28 12z" />
<glyph unicode="(" horiz-adv-x="243" d="M173 800q17 0 28.5 -11.5t11.5 -28.5q0 -14 -9 -25q-94 -154 -94 -335t94 -335q9 -10 9 -25q0 -16 -12 -28t-28 -12q-22 0 -34 18v0q-109 175 -109 382q0 204 107 379v0q12 21 36 21z" />
<glyph unicode=")" horiz-adv-x="261" d="M79 800q-17 0 -28.5 -11.5t-11.5 -28.5q0 -14 9 -25q94 -154 94 -335t-94 -335q-9 -10 -9 -25q0 -16 12 -28t28 -12q22 0 34 18v0q109 175 109 382q0 204 -107 379v0q-12 21 -36 21z" />
<glyph unicode="*" horiz-adv-x="498" d="M44 147q-20 -12 -20 -34q0 -17 11.5 -28.5t28.5 -11.5q12 0 23 7l121 75v-115q0 -17 11.5 -28.5t28.5 -11.5q39 0 39 40v117l127 -79q8 -5 20 -5q39 0 39 40q0 22 -21 35l-128 80l128 80q21 13 21 35q0 40 -39 40q-11 0 -24 -8l-123 -76v117q0 40 -39 40 q-17 0 -28.5 -11.5t-11.5 -28.5v-115l-122 76q-10 6 -22 6q-17 0 -28.5 -11.5t-11.5 -28.5q0 -22 19 -34v0l131 -81z" />
<glyph unicode="+" horiz-adv-x="386" d="M325 268q17 0 28.5 -11.5t11.5 -28.5q0 -16 -12 -28t-28 -12h-92v-92q0 -16 -12 -28t-28 -12q-17 0 -28.5 11.5t-11.5 28.5v92h-92q-17 0 -28.5 11.5t-11.5 28.5t11.5 28.5t28.5 11.5h92v92q0 17 11.5 28.5t28.5 11.5t28.5 -11.5t11.5 -28.5v-92h92z" />
<glyph unicode="," horiz-adv-x="192" d="M46 -40q0 -31 31 -31q10 0 24 12q45 38 45 99q0 57 -51 57q-21 0 -34.5 -14.5t-13.5 -35.5q0 -33 29 -44q-8 -10 -21 -21q-9 -8 -9 -22z" />
<glyph unicode="-" horiz-adv-x="391" d="M327 268q17 0 28.5 -11.5t11.5 -28.5q0 -16 -12 -28t-28 -12h-263q-17 0 -28.5 11.5t-11.5 28.5t11.5 28.5t28.5 11.5q120 -1 263 0z" />
<glyph unicode="." horiz-adv-x="180" d="M90 98q20 0 34.5 -14.5t14.5 -34.5t-14.5 -34.5t-34.5 -14.5t-34.5 14.5t-14.5 34.5t14.5 34.5t34.5 14.5z" />
<glyph unicode="/" horiz-adv-x="435" d="M341 800q39 5 45 -34q1 -6 -1 -15v0l-260 -729q-11 -20 -30 -22q-38 -5 -46 34q-1 4 1 15v0l2 7l255 714q6 26 34 30z" />
<glyph unicode="0" d="M337 800q136 0 220 -138q71 -117 71 -262t-71 -262q-84 -138 -220 -138t-220 137q-72 118 -72 263t72 263q84 137 220 137zM337 720q-101 0 -162 -115q-50 -95 -50 -205t50 -205q61 -115 162 -115q102 0 162 115q49 94 49 205t-49 205q-60 115 -162 115z" />
<glyph unicode="1" d="M99 619q-13 -13 -30 -13t-28.5 11.5t-11.5 28.5q0 16 12 28v0l114 114q12 12 29 12q16 0 28 -12t12 -28v-720q0 -16 -12 -28t-28 -12q-17 0 -29 11.5t-12 28.5v623z" />
<glyph unicode="2" d="M63 1q-17 0 -28.5 11.5t-11.5 28.5v8h1v4h1v1q0 5 6 11v1l363 386q41 44 41 107q0 67 -46.5 114t-113.5 47q-60 0 -104 -37.5t-54 -95.5v0q-7 -31 -40 -31q-17 0 -28.5 11.5t-11.5 28.5q0 4 2 13q18 85 83.5 138t152.5 53q108 0 174 -66.5t66 -174.5q0 -90 -59 -158v0 l-300 -320h330v-1q17 0 28.5 -11.5t11.5 -28.5q0 -16 -12 -28t-28 -12h-423v1z" />
<glyph unicode="3" d="M82 195q26 0 35 -24l1 1q16 -41 54 -66.5t83 -25.5q62 0 105.5 43.5t43.5 105.5t-38.5 105t-99.5 43h-11q-16 0 -28 12t-12 28q0 43 55 40q51 5 86 42t35 89q0 55 -38.5 93.5t-93.5 38.5q-76 0 -114 -66v0q-10 -24 -36 -24q-17 0 -28.5 11.5t-11.5 28.5q0 10 5 20h-1 q29 51 78.5 80.5t107.5 29.5q92 0 152 -60t60 -152q0 -105 -85 -169q102 -67 102 -190q0 -101 -63.5 -165t-165.5 -64q-69 0 -125.5 37.5t-84.5 101.5q-5 11 -5 18q0 16 11 27t27 11z" />
<glyph unicode="4" d="M432 800q17 0 28.5 -11.5t11.5 -28.5q0 -12 -9 -25l-326 -465h296v228q0 17 11.5 28.5t28.5 11.5t28.5 -11.5t11.5 -28.5v-228h80q17 0 28.5 -11.5t11.5 -28.5t-11.5 -28.5t-28.5 -11.5h-80v-150q0 -16 -12 -28t-28 -12q-17 0 -28.5 11.5t-11.5 28.5v150h-373 q-17 0 -28.5 11.5t-11.5 28.5q0 9 5 19v1l375 533q12 17 32 17z" />
<glyph unicode="5" d="M68 760q0 17 11.5 28.5t28.5 11.5h293q17 0 28.5 -11.5t11.5 -28.5t-11.5 -28.5t-28.5 -11.5h-253v-198q44 15 88 15q121 0 195 -74t74 -195q0 -122 -73.5 -195t-195.5 -73q-121 0 -201 92q-14 12 -14 30q0 16 12 28t28 12q22 0 34 -19v1q57 -64 141 -64q81 0 135 53.5 t54 134.5q0 80 -54.5 134.5t-134.5 54.5q-57 0 -103 -31v1q-10 -9 -25 -9q-16 0 -28 12t-12 28v302z" />
<glyph unicode="6" d="M287 81q78 0 127 50.5t49 128.5q0 79 -48.5 129t-127.5 50q-77 0 -127 -51t-50 -128t50 -128t127 -51zM382 800q40 0 40 -41q0 -27 -25 -37v0q-67 -26 -131 -95q-58 -61 -93 -134q54 27 114 27q114 0 185 -72.5t71 -187.5q0 -116 -70.5 -188t-185.5 -72q-116 0 -186.5 72 t-70.5 188q0 156 95 313q97 161 237 222q11 5 20 5z" />
<glyph unicode="7" d="M151 26q-13 -26 -38 -26q-16 0 -28 12t-12 28q0 12 6 21l152 299h-66q-17 0 -28.5 11.5t-11.5 28.5t11.5 28.5t28.5 11.5h107l142 280h-358q-17 0 -28.5 11.5t-11.5 28.5q0 16 12 28t28 12h424q16 0 28 -12t12 -28q0 -10 -4 -17v0l-154 -303h66q17 0 28.5 -11.5 t11.5 -28.5t-11.5 -28.5t-28.5 -11.5h-107z" />
<glyph unicode="8" d="M265 800q92 0 152 -60t60 -152q0 -105 -85 -169q102 -67 102 -190q0 -101 -63.5 -165t-165.5 -64t-165 63.5t-63 165.5q0 123 102 190q-85 64 -85 169q0 94 58.5 153t152.5 59zM276 377q-9 1 -22 0q-63 -4 -100 -44.5t-37 -103.5t42.5 -106t105.5 -43q62 0 105.5 43.5 t43.5 105.5q0 61 -38.5 102t-99.5 46zM265 458q8 0 11 -1q51 5 86 42t35 89q0 55 -38.5 93.5t-93.5 38.5t-93 -38.5t-38 -93.5q0 -51 34.5 -89t85.5 -42q4 1 11 1z" />
<glyph unicode="9" d="M283 719q-78 0 -127 -50.5t-49 -128.5q0 -79 48.5 -129t127.5 -50q77 0 127 51t50 128t-50 128t-127 51zM188 0q-40 0 -40 41q0 27 25 37v0q143 63 224 229q-54 -27 -114 -27q-114 0 -185 72.5t-71 187.5q0 116 70.5 188t185.5 72q116 0 186.5 -72t70.5 -188 q0 -156 -95 -313q-97 -161 -237 -222q-11 -5 -20 -5z" />
<glyph unicode=":" horiz-adv-x="180" d="M90 453q20 0 34.5 -14.5t14.5 -34.5t-14.5 -34.5t-34.5 -14.5t-34.5 14.5t-14.5 34.5t14.5 34.5t34.5 14.5zM90 98q20 0 34.5 -14.5t14.5 -34.5t-14.5 -34.5t-34.5 -14.5t-34.5 14.5t-14.5 34.5t14.5 34.5t34.5 14.5z" />
<glyph unicode=";" horiz-adv-x="180" d="M90 453q20 0 34.5 -14.5t14.5 -34.5t-14.5 -34.5t-34.5 -14.5t-34.5 14.5t-14.5 34.5t14.5 34.5t34.5 14.5zM46 -40q0 -31 31 -31q10 0 24 12q45 38 45 99q0 57 -51 57q-21 0 -34.5 -14.5t-13.5 -35.5q0 -33 29 -44q-8 -10 -21 -21q-9 -8 -9 -22z" />
<glyph unicode="&#x3c;" horiz-adv-x="492" d="M459 379q15 14 15 34q0 18 -11.5 30.5t-28.5 12.5q-3 0 -11 -2l-1 1l-383 -190v-1q-21 -12 -21 -38q0 -22 18 -36v0l384 -188q10 -2 14 -2q17 0 28.5 12.5t11.5 30.5q0 28 -26 40l-303 144l303 146q2 1 8 5z" />
<glyph unicode="=" horiz-adv-x="437" d="M349 388q16 0 28 -11.5t12 -27.5q0 -17 -11.5 -28.5t-28.5 -11.5h-261q-39 0 -39 40q0 16 11.5 27.5t27.5 11.5h261zM349 188q16 0 28 -12t12 -28t-12 -28t-28 -12h-261q-17 0 -28 11.5t-11 28.5q0 16 11.5 28t27.5 12h261z" />
<glyph unicode="&#x3e;" horiz-adv-x="496" d="M35 77q-15 -13 -15 -34q0 -18 11.5 -30.5t28.5 -12.5q3 0 11 2v-1l384 190v1q21 12 21 38q0 23 -18 36v0l-379 185q-1 0 -3 1l-3 2v-1q-6 3 -13 3q-17 0 -28.5 -12.5t-11.5 -30.5q0 -28 26 -40l303 -144l-303 -146q-2 -1 -9 -5z" />
<glyph unicode="?" horiz-adv-x="530" d="M271 127q17 0 28.5 -11.5t11.5 -28.5v0v-47q0 -17 -11.5 -28.5t-28.5 -11.5t-28.5 11.5t-11.5 28.5v0v47q0 17 11.5 28.5t28.5 11.5zM310 202q-3 -39 -39 -39q-16 0 -27.5 11.5t-11.5 27.5v2l1 29q9 58 25 88q21 39 71 89q64 64 79 84q24 32 22 76q-3 74 -56 117 q-50 40 -125 39q-83 -2 -131 -91q-16 -29 -20 -58q-1 -36 -38 -36q-39 0 -39 38q0 53 36 107q33 51 81 79q56 33 116 35q109 3 182 -64t73 -175q0 -52 -31 -101q-19 -31 -71.5 -83.5t-72.5 -84.5q-15 -25 -22 -59z" />
<glyph unicode="A" horiz-adv-x="745" d="M534 273h-323l161 384zM177 193h390l73 -172q9 -21 35 -21q17 0 28.5 11.5t11.5 28.5q0 9 -4 19l-301 715q-11 26 -38 26q-23 0 -35 -21v0v-1l-3 -5l-303 -722q-2 -5 -2 -11q0 -16 12 -28t28 -12q25 0 36 23l1 -1z" />
<glyph unicode="B" horiz-adv-x="547" d="M284 378h-35l-50 -1h-85v-297h170q62 0 105 43.5t43 105.5q0 61 -43.5 105t-104.5 44zM74 800h172q92 0 152 -60t60 -152q0 -93 -69 -156q58 -29 91 -83.5t33 -119.5q0 -101 -63.5 -165t-165.5 -64h-210q-16 0 -28 12t-12 28v720q0 16 12 28t28 12zM114 724v-267h165 q8 0 25 8q78 36 78 123q0 56 -40 96t-96 40h-132z" />
<glyph unicode="C" horiz-adv-x="769" d="M664 625q-96 95 -227 95q-146 0 -233 -87t-87 -233t87 -233t233 -87q131 0 225 93v0q13 11 28 11q17 0 28.5 -11.5t11.5 -28.5q0 -16 -13 -29q-118 -115 -280 -115q-179 0 -289.5 110.5t-110.5 289.5t110.5 289.5t289.5 110.5q161 0 279 -113q16 -12 16 -32 q0 -17 -11.5 -28.5t-28.5 -11.5q-18 0 -28 10z" />
<glyph unicode="D" horiz-adv-x="694" d="M256 799h-177q-17 0 -28.5 -11.5t-11.5 -28.5v0v-718q0 -17 11.5 -28.5t28.5 -11.5v0h177v-1q179 0 289.5 110.5t110.5 289.5t-110.5 289.5t-289.5 110.5v0v-1zM119 720h137q146 0 233 -87t87 -233t-87 -233t-233 -87v0v0h-137v640z" />
<glyph unicode="E" horiz-adv-x="546" d="M130 378h211q17 0 28.5 11.5t11.5 28.5t-11.5 28.5t-28.5 11.5v1h-211v261h327q17 0 28.5 11.5t11.5 28.5t-11.5 28.5t-28.5 11.5v0h-367q-17 0 -28.5 -11.5t-11.5 -28.5v-720q0 -17 11.5 -28.5t28.5 -11.5v0h367q17 0 28.5 11.5t11.5 28.5t-11.5 28.5t-28.5 11.5v0h-327 v298z" />
<glyph unicode="F" horiz-adv-x="512" d="M113 720h327q17 0 28.5 11.5t11.5 28.5t-11.5 28.5t-28.5 11.5v0h-367q-17 0 -28.5 -11.5t-11.5 -28.5v0v0v-720q0 -17 11.5 -28.5t28.5 -11.5t28.5 11.5t11.5 28.5v0v0v339h201q6 -2 10 -2q40 0 40 41q0 17 -11.5 28.5t-28.5 11.5q-1 0 -5 -1v2h-206v261z" />
<glyph unicode="G" horiz-adv-x="851" d="M426 461h358q17 0 28.5 -11.5t11.5 -28.5v-4h1q1 -5 1 -17q0 -179 -110.5 -289.5t-289.5 -110.5q-180 0 -290 110t-110 290t110 290t290 110q141 0 251 -89v0q14 -12 14 -31q0 -16 -12 -28t-28 -12q-21 0 -33 17l-1 -1q-85 64 -191 64q-146 0 -233 -87t-87 -233t87 -233 t233 -87q136 0 224 82.5t95 218.5h-319q-17 0 -28.5 11.5t-11.5 28.5t11.5 28.5t28.5 11.5z" />
<glyph unicode="H" horiz-adv-x="738" d="M101 800q17 0 28.5 -11.5t11.5 -28.5v0v-302h456v302q0 17 11.5 28.5t28.5 11.5t28.5 -11.5t11.5 -28.5v0v-720q0 -17 -11.5 -28.5t-28.5 -11.5q-16 0 -28 12t-12 28v0v338h-456v-338q0 -17 -11.5 -28.5t-28.5 -11.5t-28.5 11.5t-11.5 28.5v0v720q0 17 11.5 28.5 t28.5 11.5z" />
<glyph unicode="I" horiz-adv-x="242" d="M161 760v-720q0 -16 -12 -28t-28 -12q-17 0 -28.5 11.5t-11.5 28.5v0v720q0 17 11.5 28.5t28.5 11.5t28.5 -11.5t11.5 -28.5z" />
<glyph unicode="J" horiz-adv-x="461" d="M428 206v554q0 17 -11.5 28.5t-28.5 11.5q-16 0 -28 -12t-12 -28v0v-553q0 -51 -36.5 -89t-87.5 -38q-65 0 -91 38l-24 36q-15 20 -36 20q-17 0 -28.5 -11.5t-11.5 -28.5v-6q-1 -1 2 -9q25 -54 76 -86.5t111 -32.5q88 0 147 59t59 147z" />
<glyph unicode="K" horiz-adv-x="628" d="M217 402l354 -330q16 -12 16 -32q0 -17 -11.5 -28.5t-28.5 -11.5q-20 0 -32 17l-380 352q-2 1 -6 5v1q-7 7 -8 15v-349q0 -17 -11.5 -28.5t-28.5 -11.5t-28.5 11.5t-11.5 28.5v0v719q0 17 11.5 28.5t28.5 11.5t28.5 -11.5t11.5 -28.5v0v-349q1 8 8 15v0v0q1 1 4 5 l348 352q12 17 33 17q17 0 28.5 -11.5t11.5 -28.5q0 -13 -7 -23v0l-1 -1q-3 -4 -7 -7z" />
<glyph unicode="L" horiz-adv-x="526" d="M115 80h337q17 0 28.5 -11.5t11.5 -28.5q0 -16 -12 -28t-28 -12h-377q-17 0 -28.5 11.5t-11.5 28.5v0v720q0 17 11.5 28.5t28.5 11.5t28.5 -11.5t11.5 -28.5v0v-680z" />
<glyph unicode="M" horiz-adv-x="939" d="M790 591v-551q0 -17 11.5 -28.5t28.5 -11.5q16 0 28 12t12 28v0v0v715h-1q1 1 1 5q0 17 -11.5 28.5t-28.5 11.5q-26 0 -36 -22v0l-325 -649l-322 645q-13 26 -38 26q-17 0 -28.5 -11.5t-11.5 -28.5v0v0v-720q0 -17 11.5 -28.5t28.5 -11.5t28.5 11.5t11.5 28.5v0v0v551 l282 -562q8 -29 38 -29q25 0 38 26z" />
<glyph unicode="N" horiz-adv-x="746" d="M682 760v-720q0 -17 -11.5 -28.5t-28.5 -11.5q-19 0 -31 15v0l-467 625v-600q0 -17 -11.5 -28.5t-28.5 -11.5q-16 0 -28 12t-12 28v0v720q0 16 12 28t28 12q21 0 33 -17v1l465 -623v599q0 16 12 28t28 12q17 0 28.5 -11.5t11.5 -28.5z" />
<glyph unicode="O" horiz-adv-x="877" d="M439 800q179 0 289.5 -110.5t110.5 -289.5t-110.5 -289.5t-289.5 -110.5q-180 0 -290 110t-110 290t110 290t290 110zM439 720q-146 0 -233 -87t-87 -233t87 -233t233 -87t233 87t87 233t-87 233t-233 87z" />
<glyph unicode="P" horiz-adv-x="474" d="M237 457q54 0 93 38.5t39 92.5q0 55 -38.5 93.5t-93.5 38.5v0h-132v-263h132zM105 377v-337q0 -17 -11.5 -28.5t-28.5 -11.5q-16 0 -28 12t-12 28v0v720q0 16 12 28t28 12v0v0v0v0h172q92 0 152 -60t60 -152q0 -93 -59.5 -152t-152.5 -59h-132z" />
<glyph unicode="Q" horiz-adv-x="888" d="M444 800q179 0 289 -110t110 -289q0 -144 -93 -255l83 -82q8 -11 8 -24q0 -17 -11.5 -28.5t-28.5 -11.5t-30 13l-77 78q-110 -89 -250 -89q-179 0 -289 110t-110 289t110 289t289 110zM538 245q-9 9 -9 26t11.5 28.5t28.5 11.5q18 0 28 -13v0l96 -95q70 86 70 198 q0 146 -86.5 232.5t-232.5 86.5t-232.5 -86.5t-86.5 -232.5t86.5 -232.5t232.5 -86.5q107 0 193 65z" />
<glyph unicode="R" horiz-adv-x="512" d="M398 15l-274 362h-1v-337q0 -17 -11.5 -28.5t-28.5 -11.5q-16 0 -28 12t-12 28v0v720q0 17 11.5 28.5t28.5 11.5v0v0v0v0h172q93 0 152 -59.5t59 -152.5q0 -92 -59.5 -151.5t-151.5 -59.5h-31l236 -311q9 -12 9 -26q0 -17 -11.5 -28.5t-28.5 -11.5q-20 0 -31 15zM255 457 q54 0 92.5 38.5t38.5 92.5q0 56 -37.5 94t-93.5 38v0h-132v-263h132z" />
<glyph unicode="S" horiz-adv-x="543" d="M35 159l-1 10l1 7l2 8l4 8l6 7l7 5l4 2l11 4h1l9 1l9 -2l7 -2l6 -3q3 -3 9 -8q2 -2 8 -14v0q4 -10 14 -30q48 -73 133 -73q27 0 56 11q45 17 73 55.5t28 85.5q0 101 -130 147q-42 21 -126 61q-64 39 -94 102q-9 33 -9 63q0 96 73 150q67 51 164 46q87 -4 157 -85l2 -4 q1 -1 3 -9q1 -6 0 -14q-2 -10 -12 -23l-1 -0.5t-2 -1.5l-5 -3q-8 -5 -16 -5q-6 -2 -14 0q-13 3 -24 14v0q-13 17 -17 19q-26 23 -58 29q-53 10 -92 -8q-60 -28 -72 -89q-1 -46 21 -78q36 -36 166 -91q173 -73 173 -215q0 -25 -6 -50q-22 -93 -111 -152q-47 -31 -122 -34 q-108 -4 -196 85q-25 36 -39 74z" />
<glyph unicode="T" horiz-adv-x="536" d="M308 720v-680q0 -17 -11.5 -28.5t-28.5 -11.5t-28.5 11.5t-11.5 28.5v0v680h-164q-2 -1 -7 -1q-16 0 -28 12t-12 28q0 17 11.5 28.5t28.5 11.5v0v0h416q2 1 7 1q17 0 28.5 -11.5t11.5 -28.5t-11.5 -28.5t-28.5 -11.5h-172z" />
<glyph unicode="U" horiz-adv-x="662" d="M125 287q0 -91 57.5 -149t148.5 -58q92 0 149 57.5t57 149.5v0h1v474q0 17 11.5 28.5t28.5 11.5t28.5 -11.5t11.5 -28.5v-474q0 -131 -78 -209t-209 -78t-209 78t-78 209v0v0v474q0 17 11.5 28.5t28.5 11.5t29 -11.5t12 -28.5v0v-474z" />
<glyph unicode="V" horiz-adv-x="735" d="M368 144l260 629q9 22 35 22q17 0 28.5 -11.5t11.5 -28.5q0 -7 -5 -19l-294 -713q-9 -23 -36 -23q-31 0 -39 30l-292 711q-5 12 -5 19q0 17 11.5 28.5t28.5 11.5q23 0 35 -21v0z" />
<glyph unicode="W" horiz-adv-x="1011" d="M126 769l117 -585l225 590q10 26 38 26q31 0 39 -32l225 -585l116 587q6 30 39 30q16 0 28 -12t12 -28q0 -4 -1 -6v0l-142 -716q-2 -38 -40 -38q-24 0 -36 22v0l-240 626l-238 -625h-1q-11 -23 -36 -23q-31 0 -39 30v0l-144 720l-2 10q0 40 41 40q33 0 39 -31z" />
<glyph unicode="X" horiz-adv-x="647" d="M323 339l220 -322q11 -16 32 -16q17 0 28.5 11.5t11.5 28.5q0 9 -5 19v0l-239 349l221 325q9 13 9 26q0 17 -11.5 28.5t-28.5 11.5q-20 0 -32 -16v0v-1l-1 -1l-205 -302l-204 297q-11 23 -36 23q-17 0 -28.5 -11.5t-11.5 -28.5q0 -16 11 -27l221 -323l-237 -348 q-6 -9 -6 -22q0 -17 11.5 -28.5t28.5 -11.5q21 0 35 21z" />
<glyph unicode="Y" horiz-adv-x="650" d="M365 349l262 386q8 12 8 24q0 16 -12 28t-28 12q-20 0 -32 -16v0q-2 -2 -3 -4l-235 -347l-236 350q-12 18 -33 18q-17 0 -29 -11.5t-12 -28.5q0 -13 8 -24v0l262 -387v-309q0 -16 12 -28t28 -12q17 0 28.5 11.5t11.5 28.5v309z" />
<glyph unicode="Z" horiz-adv-x="634" d="M563 80q17 0 28.5 -11.5t11.5 -28.5t-11.5 -28.5t-28.5 -11.5v0v0h-492q-17 0 -28.5 11.5t-11.5 28.5q0 16 10 26l446 654h-378q-17 0 -28.5 11.5t-11.5 28.5t11.5 28.5t28.5 11.5v0v0h454q16 0 28 -12t12 -28q0 -13 -7 -23v0l-449 -657h416z" />
<glyph unicode="^" horiz-adv-x="564" d="M179 541q-23 -13 -23 -36q0 -17 11.5 -28.5t28.5 -11.5q12 0 21 5l65 36l65 -36q9 -5 20 -5q17 0 28.5 11.5t11.5 28.5q0 23 -21 35v0l-84 47q-9 5 -20 5q-10 0 -18 -4v0z" />
<glyph unicode="_" horiz-adv-x="391" d="M327 80q17 0 28.5 -11.5t11.5 -28.5t-11.5 -28.5t-28.5 -11.5h-263q-17 0 -28.5 11.5t-11.5 28.5t11.5 28.5t28.5 11.5h263z" />
<glyph unicode="`" horiz-adv-x="560" d="M0 808h567v-8h-567v8zM454 464h86v-8h-86v8zM340 464h86v-8h-86v8zM227 464h85v-8h-85v8zM114 464h85v-8h-85v8zM0 464h86v-8h-86v8zM454 4h85v-8h-85v8zM340 4h86v-8h-86v8zM227 4h85v-8h-85v8zM113 4h86v-8h-86v8zM0 4h85v-8h-85v8zM0 -340h567v-8h-567v8z" />
<glyph unicode="a" horiz-adv-x="564" d="M282 376q-62 0 -105 -43t-43 -105q0 -61 43.5 -104.5t104.5 -43.5t104.5 43.5t43.5 104.5q0 62 -43 105t-105 43zM510 417v-377q0 -17 -11.5 -28.5t-28.5 -11.5t-28.5 11.5t-11.5 28.5v0v15q-64 -55 -148 -55q-103 0 -166 62.5t-63 165.5q0 102 64 165.5t165 63.5 q84 0 148 -55v15q0 17 11.5 28.5t28.5 11.5q16 0 28 -12t12 -28z" />
<glyph unicode="b" horiz-adv-x="516" d="M70 800q17 0 28.5 -11.5t11.5 -28.5v0v-358q64 55 148 55q103 0 166 -62.5t63 -165.5q0 -101 -63.5 -165t-165.5 -64q-84 0 -148 55v-15q0 -16 -12 -28t-28 -12q-17 0 -28.5 11.5t-11.5 28.5v0v720q0 17 11.5 28.5t28.5 11.5zM258 378q-62 0 -106 -43.5t-44 -105.5 t44 -106t106 -44t106 44t44 106q0 63 -43.5 106t-106.5 43z" />
<glyph unicode="c" horiz-adv-x="443" d="M363 327q8 -6 19 -6q17 0 28.5 11.5t11.5 28.5t-13 30q-66 66 -160 66q-102 0 -165 -63.5t-63 -165.5q0 -100 64.5 -164t163.5 -64q88 0 154 60q18 12 18 34q0 17 -11.5 28.5t-28.5 11.5q-20 0 -33 -16q-43 -38 -99 -38q-61 0 -104.5 43.5t-43.5 104.5q0 63 42.5 106 t105.5 43q59 0 100 -38q4 -6 14 -13v1z" />
<glyph unicode="d" horiz-adv-x="564" d="M470 800q17 0 28.5 -11.5t11.5 -28.5v0v0v-720q0 -17 -11.5 -28.5t-28.5 -11.5q-16 0 -28 12t-12 28v0v0v15q-64 -55 -148 -55q-101 0 -165 64t-64 165q0 102 63.5 165t165.5 63q84 0 148 -55v358q0 17 11.5 28.5t28.5 11.5zM282 378q-62 0 -106 -43.5t-44 -105.5 t44 -106t106 -44t106 44t44 106q0 63 -43.5 106t-106.5 43z" />
<glyph unicode="e" horiz-adv-x="516" d="M118 276h280q-15 46 -53.5 73t-86.5 27t-86.5 -27.5t-53.5 -72.5zM406 152q17 0 28.5 -11.5t11.5 -28.5q0 -12 -8 -23h1q-69 -89 -181 -89q-100 0 -164 64.5t-64 163.5q0 100 64.5 164t163.5 64t161 -59.5t67 -158.5v0v-2q0 -16 -12 -28t-28 -12h-333q12 -51 52.5 -83.5 t92.5 -32.5q70 0 115 54q12 18 33 18z" />
<glyph unicode="f" horiz-adv-x="421" d="M128 -300v679h-66q-17 0 -28.5 11.5t-11.5 28.5q0 39 40 39h66v190q0 64 44.5 108t109.5 44q83 0 131 -74v0q4 -7 4 -18q0 -16 -11.5 -28t-27.5 -12q-24 0 -34 19h-1q-22 33 -61 33q-31 0 -52.5 -21.5t-21.5 -52.5v0v-188h98q40 0 40 -39q0 -17 -11.5 -28.5t-28.5 -11.5 v0v0h-98v-679q0 -17 -11.5 -28.5t-28.5 -11.5t-28.5 11.5t-11.5 28.5z" />
<glyph unicode="g" horiz-adv-x="567" d="M140 -142l-4 10l-4 4l-3 5l-5 3l-5 2l-5 3l-4 1h-13l-6 -1l-6 -3l-5 -3l-5 -4l-3 -3l-3 -4l-1 -3l-3 -5l-1 -6l-1 -7l1 -4v-3q16 -79 76.5 -128t141.5 -49q99 0 160.5 61.5t63.5 160.5v0v521q-1 4 -3 14l-3 6l-3 5q-2 2 -4 5l-6 3l-5 3q-4 1 -10 3h-12q-4 -1 -9.5 -3 t-11.5 -8l-3 -4q-2 -2 -3 -4l-3 -5q0 -3 -2 -11v-16q-61 52 -143 52q-99 0 -161 -62.5t-62 -161.5q0 -98 62.5 -160.5t160.5 -62.5q82 0 143 52v-164h-1q0 -60 -42.5 -103t-102.5 -43q-53 0 -92.5 32.5t-49.5 84.5zM285 368q61 0 103 -42.5t42 -103.5q0 -60 -42.5 -102.5 t-102.5 -42.5q-61 0 -103 42t-42 103q0 62 41.5 104t103.5 42z" />
<glyph unicode="h" horiz-adv-x="454" d="M330 275q0 43 -30 73t-73 30q-42 0 -72.5 -30.5t-30.5 -72.5v0v-235q0 -17 -11.5 -28.5t-28.5 -11.5t-28.5 11.5t-11.5 28.5v0v720q0 17 11.5 28.5t28.5 11.5t28.5 -11.5t11.5 -28.5v0v-334q47 32 103 32q77 0 130 -53t53 -130v-235q0 -16 -12 -28t-28 -12 q-17 0 -28.5 11.5t-11.5 28.5v235z" />
<glyph unicode="i" horiz-adv-x="181" d="M130 415v-375q0 -17 -11.5 -28.5t-28.5 -11.5q-39 0 -39 40v0v375q0 16 11.5 28t27.5 12q17 0 28.5 -11.5t11.5 -28.5zM131 553q0 -17 -11.5 -28.5t-28.5 -11.5t-28.5 11.5t-11.5 28.5v69q0 16 12 28t28 12q17 0 28.5 -11.5t11.5 -28.5v-69z" />
<glyph unicode="j" horiz-adv-x="349" d="M312 553q0 -17 -11.5 -28.5t-28.5 -11.5t-28.5 11.5t-11.5 28.5v69q0 16 12 28t28 12q17 0 28.5 -11.5t11.5 -28.5v-69zM233 -185q0 -32 -23 -55t-55 -23q-53 0 -72 49v0q-11 23 -36 23q-16 0 -27 -11.5t-11 -27.5q0 -5 2 -13v0v-1l1 -1q18 -44 57 -70t86 -26 q65 0 109.5 44.5t46.5 109.5v0v605q0 16 -11.5 27.5t-27.5 11.5t-27.5 -11.5t-11.5 -27.5v0v-603z" />
<glyph unicode="k" horiz-adv-x="442" d="M120 210v-170q0 -17 -11.5 -28.5t-28.5 -11.5t-28.5 11.5t-11.5 28.5q0 7 1 10v710q0 40 41 40q16 0 28 -12t12 -28q0 -4 -2 -10v-505l177 189q11 24 37 24q16 0 28 -12t12 -28q0 -17 -12 -28l1 -1l-146 -159l173 -160l-1 -1q13 -12 13 -29t-11.5 -28.5t-28.5 -11.5 q-22 0 -34 18z" />
<glyph unicode="l" horiz-adv-x="246" d="M115 132q0 -21 15 -36t36 -15v0v-1h13l6 -2l6 -3q2 -2 4 -3l5 -5l5 -6l2 -5l3 -7l1 -8q-1 -1 -1 -6l-1 -7q-2 -5 -8 -16q-4 -2 -12 -8l-10 -3q-5 -1 -13 -1q-55 0 -93 38.5t-38 93.5v0v0v628q0 16 12 28t28 12q17 0 28.5 -11.5t11.5 -28.5v-628z" />
<glyph unicode="m" horiz-adv-x="711" d="M658 40l-2 247q-1 70 -50.5 119.5t-119.5 49.5q-79 0 -131 -61q-51 61 -130 61q-51 0 -95 -29q-11 26 -37 26q-40 0 -40 -39v-121q-1 -3 -1 -6v0h1v-247q0 -17 11.5 -28.5t28.5 -11.5q39 0 39 40v0v0v247h3q0 37 26.5 63.5t63.5 26.5t64 -26.5t27 -63.5v0l-3 -247 q0 -17 12 -28.5t29 -11.5t29 11.5t12 28.5v0v0v247q0 38 26.5 64t64.5 26q37 0 63.5 -26.5t26.5 -63.5v0v-247q0 -16 12.5 -27.5t28.5 -11.5t28.5 11.5t12.5 27.5z" />
<glyph unicode="n" horiz-adv-x="462" d="M413 40q0 -17 -11.5 -28.5t-28.5 -11.5t-28.5 11.5t-11.5 28.5q0 4 1 6v228q0 42 -30.5 72t-72.5 30q-43 0 -73 -29.5t-30 -72.5v0v-234q0 -17 -11.5 -28.5t-28.5 -11.5q-39 0 -39 40v0v376q0 40 39 40q32 0 40 -32q47 32 103 32q76 0 129 -53t53 -129v-234z" />
<glyph unicode="o" horiz-adv-x="543" d="M271 378q-62 0 -105 -43.5t-43 -105.5q0 -63 42.5 -106t105.5 -43q62 0 105.5 43.5t43.5 105.5t-43.5 105.5t-105.5 43.5zM271 458q102 0 165.5 -63.5t63.5 -165.5q0 -101 -63.5 -165t-165.5 -64t-165 63.5t-63 165.5q0 103 62.5 166t165.5 63z" />
<glyph unicode="p" horiz-adv-x="543" d="M83 -343q-16 0 -28 12t-12 28v0v0v720q0 17 11.5 28.5t28.5 11.5t28.5 -11.5t11.5 -28.5v0v0v-15q64 55 149 55q100 0 164 -64.5t64 -163.5q0 -103 -62.5 -166t-165.5 -63q-85 0 -149 55v-358q0 -17 -11.5 -28.5t-28.5 -11.5zM272 79q63 0 106 43.5t43 106.5 q0 62 -43.5 105.5t-105.5 43.5t-106 -43.5t-44 -105.5t44 -106t106 -44z" />
<glyph unicode="q" horiz-adv-x="557" d="M467 -343q-16 0 -28 12t-12 28v0v358q-64 -55 -148 -55q-101 0 -165 64t-64 165q0 102 63.5 165t165.5 63q84 0 148 -55v15q0 17 11.5 28.5t28.5 11.5t28.5 -11.5t11.5 -28.5v0v-720q0 -17 -11.5 -28.5t-28.5 -11.5zM279 79q63 0 106 43.5t43 106.5q0 62 -43.5 105.5 t-105.5 43.5t-106 -43.5t-44 -105.5t44 -106t106 -44z" />
<glyph unicode="r" horiz-adv-x="376" d="M296 372q1 0 3 -1h7l8 1q4 2 13 7l6 5l6 7l2 7l2 9l1 7l-2 8l-3 7l-4 6l-7 7l-8 5l-6 2v1q-27 6 -54 6q-84 0 -148 -55v15q0 17 -11.5 28.5t-28.5 11.5t-28.5 -11.5t-11.5 -28.5v0v-376q0 -17 11.5 -28.5t28.5 -11.5t28.5 11.5t11.5 28.5v0v0v188q0 61 43.5 104.5 t104.5 43.5q20 0 36 -4z" />
<glyph unicode="s" horiz-adv-x="364" d="M72 136q8 1 23 -4q8 -6 32 -34q18 -21 46 -21h6q33 4 48 19l3 4l6 10q6 15 5 29q-2 38 -47 58q-80 36 -98 48q-49 33 -46 93q3 61 51 95l12 8q5 2 23 10q25 5 37 5q28 0 64 -13q19 -10 31 -20q16 -13 19 -32q3 -18 -7.5 -32t-28.5 -15q-6 1 -21 4q-20 15 -45 31 q-8 3 -15 2q-42 -1 -40 -47q1 -25 38 -39q13 -6 54 -22q76 -30 94 -75q13 -32 11 -66q-2 -39 -26 -75q-2 -2 -8.5 -9t-11.5 -12q-1 -1 -7 -6t-11 -8q-1 0 -12 -7q-2 -2 -22 -10q-11 -2 -53 -5l-26 2q-69 14 -103 62q-11 16 -11 32q0 35 36 40z" />
<glyph unicode="t" horiz-adv-x="320" d="M119 383h-56l-7 2l-9 5l-7 7l-6 9l-3 9v13l3 9l4 7l4 5l7 5q3 2 8 3l7 2l6 1h49v167q0 39 38 39q16 0 27.5 -11.5t11.5 -27.5v0v-1h1v-166h53l5 -1l6 -2l6 -3l5 -5l5 -3l3 -6l3 -4l1 -7l1 -5v-5l-1 -7l-2 -4l-1 -5l-3 -5l-3 -4l-4 -2l-2 -3l-10 -4l-6 -2h-56v-255 q0 -21 14.5 -36t35.5 -15v0v0h5q32 0 36 -31l1 -7v-6l-1 -6l-8 -16l-7 -5q-2 -2 -5 -3l-9 -3q-3 -1 -12 -1q-53 0 -89.5 37.5t-38.5 90.5v0v0v256z" />
<glyph unicode="u" horiz-adv-x="472" d="M54 416q0 17 11.5 28.5t28.5 11.5t28.5 -11.5t11.5 -28.5q0 -4 -1 -6v-228q0 -42 30.5 -72t72.5 -30q43 0 73 29.5t30 72.5v0v234q0 40 39 40q17 0 28.5 -11.5t11.5 -28.5v0v-376q0 -17 -11.5 -28.5t-28.5 -11.5q-31 0 -39 32q-47 -32 -103 -32q-76 0 -129 53t-53 129 v234z" />
<glyph unicode="v" horiz-adv-x="486" d="M102 440q-12 16 -31 16q-17 0 -28.5 -11.5t-11.5 -28.5q0 -5 2 -11l-2 -1l178 -383q10 -21 36 -21q21 0 33 18h1l174 384q2 10 2 14q0 39 -40 39q-26 0 -37 -25l-134 -303l-136 303q-1 3 -4 8l-1 3z" />
<glyph unicode="w" horiz-adv-x="751" d="M525 145l-115 287q-10 24 -37 24q-4 0 -19 -15t-20 -17l-111 -277l-111 283h-1q-9 26 -37 26q-17 0 -28.5 -11.5t-11.5 -28.5q0 -7 4 -17l147 -369q8 -30 39 -30t38 30l111 281l114 -283q11 -28 38 -28q4 0 19 13t19 13l153 380q1 2 1 10q0 17 -11.5 28.5t-28.5 11.5 q-29 0 -38 -28v0z" />
<glyph unicode="x" horiz-adv-x="481" d="M189 242l-125 153h1q-7 8 -7 21q0 17 11.5 28.5t28.5 11.5q22 0 34 -18l109 -133l109 132q12 18 33 18q17 0 28.5 -11.5t11.5 -28.5q0 -10 -6 -21v0l-125 -152l142 -173q12 -12 12 -28q0 -17 -11.5 -28.5t-28.5 -11.5q-18 0 -30 13v0l-135 165l-135 -165h-1 q-12 -14 -30 -14q-17 0 -28.5 11.5t-11.5 28.5q0 16 12 28z" />
<glyph unicode="y" horiz-adv-x="473" d="M99 -158q4 0 19.5 -15.5t19.5 -15.5q24 -74 99 -74q42 0 72 28.5t30 70.5v196q-47 -32 -103 -32q-78 0 -130 52.5t-52 130.5v234q0 17 11.5 28.5t28.5 11.5t28.5 -11.5t11.5 -28.5v-234q0 -43 29.5 -73t72.5 -30t73 30t30 73v0v234q0 17 11.5 28.5t28.5 11.5t28.5 -11.5 t11.5 -28.5v0v-577q0 -79 -51.5 -131t-130.5 -52q-62 0 -108.5 34.5t-66.5 93.5q-3 9 -3 17q0 17 11.5 28.5t28.5 11.5z" />
<glyph unicode="z" horiz-adv-x="449" d="M372 456q17 0 28.5 -11.5t11.5 -28.5q0 -14 -9 -25v0q-57 -73 -254 -311h235q16 0 28 -12t12 -28q0 -17 -11.5 -28.5t-28.5 -11.5h-319q-17 0 -28.5 11.5t-11.5 28.5q0 15 10 27l253 309h-212q-16 0 -28 12t-12 28q0 17 11.5 28.5t28.5 11.5h296z" />
<glyph unicode="{" horiz-adv-x="539" d="M451 342q17 0 28.5 11.5t11.5 28.5q0 16 -11.5 27.5t-27.5 11.5l37 54q6 9 6 20q0 16 -11.5 27.5t-27.5 11.5q-22 0 -32 -16h-1l-67 -97h-120q-82 0 -137 -54.5t-55 -136.5q0 -92 74 -151l-66 -95q-7 -10 -7 -22q0 -39 40 -39q25 0 35 21l69 100q23 -6 47 -6h215 q17 0 28.5 11.5t11.5 28.5q0 39 -40 39h-211l157 225h54zM163 144q-40 34 -40 86q0 48 32.5 80t80.5 32v0v0h65z" />
<glyph unicode="}" horiz-adv-x="539" d="M88 342q-39 0 -39 40q0 39 38 39l-37 54q-6 9 -6 20q0 39 40 39q20 0 32 -16v0l67 -97h121q82 0 136.5 -54.5t54.5 -136.5q0 -92 -74 -151l66 -95q7 -10 7 -22q0 -16 -11.5 -27.5t-27.5 -11.5q-24 0 -35 21l-70 100q-22 -6 -46 -6h-216q-39 0 -39 40q0 16 11.5 27.5 t27.5 11.5h211l-157 225h-54zM376 144q40 34 40 86q0 46 -33 79t-79 33h-66z" />
<glyph unicode="&#xa1;" horiz-adv-x="286" d="M192 656q-17 0 -28.5 11.5t-11.5 28.5v0v0v5q0 72 67 99q5 2 9 2q20 0 20 -20q0 -15 -14 -20v0q-22 -8 -32 -27q30 -7 30 -39q0 -16 -12 -28t-28 -12zM77 656q-17 0 -28 11.5t-11 28.5v0v0v5q0 72 67 99q5 2 9 2q20 0 20 -20q0 -15 -14 -20v0q-22 -8 -32 -27 q29 -8 29 -39q0 -17 -11.5 -28.5t-28.5 -11.5z" />
<glyph unicode="&#xa4;" horiz-adv-x="506" d="M240 580v-79h-8q-75 0 -118 61v0q-1 2 -7 19v11l10 20h1q11 12 28 12q16 0 28 -12h1q1 -2 4 -6q19 -27 53 -27q5 0 8 1zM240 580v-79h7q75 0 118 61v0q3 3 8 19v10l-11 21q-12 12 -28 12q-17 0 -28 -12h-1q-1 -2 -4 -6q-19 -27 -54 -27q-5 0 -7 1zM87 -141l-4 10l-4 4 l-3 5l-5 3l-5 2l-5 3l-4 1h-13l-6 -1l-6 -3l-5 -3l-5 -4l-3 -3l-3 -4l-1 -3l-3 -5l-1 -6l-1 -7l1 -4v-3q17 -79 77 -128t141 -49q97 0 160 62.5t64 159.5v0v521q-1 4 -3 14l-3 6l-3 5q-2 2 -4 5l-6 3l-5 3q-4 1 -10 3h-12q-4 -1 -11 -4q-3 -2 -10 -7l-3 -4l-1 -1.5t-2 -2.5 l-3 -5q0 -3 -2 -11v-16q-61 52 -143 52q-99 0 -161 -62.5t-62 -161.5q0 -98 62.5 -160.5t160.5 -62.5q82 0 143 52v-164h-1q0 -60 -42.5 -103t-102.5 -43q-53 0 -92 32.5t-50 84.5zM232 369q61 0 103 -42.5t42 -103.5q0 -60 -42.5 -102.5t-102.5 -42.5t-102.5 42.5 t-42.5 102.5t42.5 103t102.5 43z" />
<glyph unicode="&#xb0;" horiz-adv-x="295" d="M148 800q49 0 84.5 -35.5t35.5 -84.5q0 -50 -35 -85t-85 -35q-51 0 -86 34.5t-35 85.5q0 50 35.5 85t85.5 35zM148 759q-34 0 -57 -22.5t-23 -56.5q0 -33 23.5 -56.5t56.5 -23.5t56 23.5t23 56.5t-23 56t-56 23z" />
<glyph unicode="&#xb4;" horiz-adv-x="561" d="M-15 -340h569v336h-87v8h87v452h-87v8h87v336h-569v8h577v-1156h-577v8zM355 -4v8h85v-8h-86v8zM241 4h85v-8h-85v8zM127 4h86v-8h-86v8zM99 4v-8h-86v8h86zM355 456v8h85v-8h-86v8zM241 464h85v-8h-85v8zM127 464h86v-8h-86v8zM99 464v-8h-86v8h86z" />
<glyph unicode="&#xb7;" horiz-adv-x="146" d="M73 80q16 0 28 -12t12 -28q0 -17 -11.5 -28.5t-28.5 -11.5t-28.5 11.5t-11.5 28.5t11.5 28.5t28.5 11.5z" />
<glyph unicode="&#xba;" horiz-adv-x="270" d="M236 649q0 -37 -40 -37t-40 42v101q0 21 11 33t29 12q34 0 39 -35h1v-116zM114 649q0 -37 -40 -37t-40 42v101q0 21 11 33t29 12q35 0 39 -36h1v-115z" />
<glyph unicode="&#xc2;" horiz-adv-x="745" d="M270 933q-23 -13 -23 -36q0 -17 11.5 -28.5t28.5 -11.5q10 0 21 6l65 36l64 -36q11 -6 21 -6q39 0 39 40q0 24 -20 35v0l-85 47q-9 5 -19 5q-11 0 -18 -4v0zM533 272h-321l160 383zM178 193h389l70 -167q0 -1 1 -3l1 -2q10 -21 35 -21q17 0 28.5 11.5t11.5 28.5 q0 7 -5 19l-299 712q-11 26 -38 26q-23 0 -35 -21v0v0q0 -2 -2 -6l-303 -719q-1 -2 -1 -11q0 -40 39 -40q26 0 36 22h1z" />
<glyph unicode="&#xc7;" horiz-adv-x="759" d="M658 625q-96 95 -227 95q-145 0 -232 -87.5t-87 -232.5q0 -146 86.5 -232.5t232.5 -86.5q130 0 225 92v0q12 12 28 12t28 -12t12 -28q0 -17 -13 -30q-118 -114 -280 -114q-179 0 -289 110t-110 289q0 178 110.5 289t288.5 111q162 0 278 -113q16 -12 16 -32 q0 -17 -11.5 -28.5t-28.5 -11.5t-27 10zM467 -165q0 -17 -11.5 -28.5t-28.5 -11.5t-28.5 11.5t-11.5 28.5v69q0 17 11.5 28.5t28.5 11.5q16 0 28 -12t12 -28v-69z" />
<glyph unicode="&#xcb;" horiz-adv-x="576" d="M577 -340h-569v336h568v8h-568v452h563l7 8h-570v336h569v8h-577v-1156h577v8z" />
<glyph unicode="&#xce;" horiz-adv-x="281" d="M37 933q-22 -12 -22 -37q0 -17 11.5 -28.5t28.5 -11.5q10 0 21 6l65 36l65 -36q11 -6 20 -6q17 0 28.5 11.5t11.5 28.5q0 24 -21 36v0l-84 47q-9 5 -20 5t-18 -4v0zM181 761v-721q0 -16 -12 -28t-28 -12q-17 0 -28.5 11.5t-11.5 28.5v0v721q0 17 11.5 28.5t28.5 11.5 q16 0 28 -12t12 -28z" />
<glyph unicode="&#xcf;" horiz-adv-x="576" d="M577 -340h-569v336h87v8h-87v452h87v8h-87v336h569v8h-577v-1156h577v8zM207 -4v8h-85v-8h86v8zM321 4h-86v-8h86v8zM434 -4v8h-85v-8h86v8zM548 -4v8h-85v-8h86v8zM207 456v8h-85v-8h86v8zM321 464h-86v-8h86v8zM434 456v8h-85v-8h86v8zM548 456v8h-85v-8h86v8z" />
<glyph unicode="&#xd0;" horiz-adv-x="851" d="M425 461h359q17 0 28.5 -11.5t11.5 -28.5v-4h1v-17q0 -180 -110 -290t-290 -110q-179 0 -289 110.5t-110 289.5q0 178 110.5 289t288.5 111q143 0 252 -90v0q13 -12 13 -30q0 -17 -11.5 -28.5t-28.5 -11.5q-20 0 -32 17l-1 -1q-85 64 -192 64q-146 0 -233 -87t-87 -233 t87 -233t233 -87q136 0 224.5 82.5t95.5 218.5h-320q-17 0 -28.5 11.5t-11.5 28.5q0 16 12 28t28 12zM576 929v-1q-58 -72 -151 -72q-96 0 -155 77l1 1q-10 10 -10 26q0 17 11.5 28.5t28.5 11.5q25 0 35 -21q34 -43 89 -43q57 0 91 45q12 19 34 19q17 0 28.5 -11.5 t11.5 -28.5q0 -19 -14 -31z" />
<glyph unicode="&#xd6;" horiz-adv-x="877" d="M439 799q179 0 289 -110.5t110 -289.5t-110 -289t-289 -110q-178 0 -289 110.5t-111 288.5q0 179 110.5 289.5t289.5 110.5zM439 719q-146 0 -233 -87t-87 -233q0 -145 87.5 -232t232.5 -87q146 0 232.5 86.5t86.5 232.5t-86.5 233t-232.5 87zM650 896q0 -17 -11.5 -28.5 t-28.5 -11.5t-28.5 11.5t-11.5 28.5v69q0 39 40 39q16 0 28 -11.5t12 -27.5v-69zM306 896q0 -40 -39 -40q-17 0 -28.5 11.5t-11.5 28.5v69q0 17 11.5 28.5t28.5 11.5t28 -11.5t11 -28.5v-69z" />
<glyph unicode="&#xd8;" horiz-adv-x="506" d="M372 575q16 3 30 -6t18 -25q2 -11 -2 -22h1l-47 -110q99 -64 99 -183q0 -94 -62 -156t-156 -62q-21 0 -46 5l-43 -103q-6 -24 -30 -29q-19 -4 -34 8.5t-15 31.5q0 7 3 15v0l45 108q-99 65 -99 182q0 95 62 157t157 62q20 0 45 -5l45 109q8 19 29 23zM341 336l-102 -244 h14q58 0 98 39.5t40 97.5q0 65 -50 107zM165 123l101 244h-13q-57 0 -97.5 -40.5t-40.5 -97.5q0 -64 50 -106z" />
<glyph unicode="&#xdb;" horiz-adv-x="662" d="M125 287q0 -91 57.5 -149t148.5 -58q92 0 149 57.5t57 149.5v0h1v474q0 17 11.5 28.5t28.5 11.5t28.5 -11.5t11.5 -28.5v-474q0 -131 -78 -209t-209 -78t-209 78t-78 209v0v0v474q0 17 11.5 28.5t28.5 11.5t29 -11.5t12 -28.5v0v-474zM229 933q-23 -13 -23 -36 q0 -17 11.5 -28.5t28.5 -11.5q10 0 21 6l64 36l65 -36q11 -6 20 -6q17 0 28.5 11.5t11.5 28.5q0 25 -21 35v0l-84 47q-9 5 -20 5q-10 0 -17 -4v0z" />
<glyph unicode="&#xdc;" horiz-adv-x="662" d="M125 287q0 -91 57.5 -149t148.5 -58q92 0 149 57.5t57 149.5v0h1v474q0 17 11.5 28.5t28.5 11.5t28.5 -11.5t11.5 -28.5v-474q0 -131 -78 -209t-209 -78t-209 78t-78 209v0v0v474q0 17 11.5 28.5t28.5 11.5t29 -11.5t12 -28.5v0v-474zM261 896q0 -16 -12 -28t-28 -12 q-17 0 -28.5 11.5t-11.5 28.5v69q0 17 11.5 28.5t28.5 11.5t28.5 -11.5t11.5 -28.5v-69zM479 896q0 -16 -11.5 -27.5t-27.5 -11.5q-40 0 -40 39v69q0 17 11.5 28.5t28.5 11.5q39 0 39 -40v-69z" />
<glyph unicode="&#xdd;" horiz-adv-x="242" d="M161 759v-719q0 -17 -11.5 -28.5t-28.5 -11.5t-28.5 11.5t-11.5 28.5v0v719q0 17 11.5 28.5t28.5 11.5t28.5 -11.5t11.5 -28.5zM161 896q0 -16 -12 -28t-28 -12q-17 0 -28.5 11.5t-11.5 28.5v69q0 17 11.5 28.5t28.5 11.5t28.5 -11.5t11.5 -28.5v-69z" />
<glyph unicode="&#xde;" horiz-adv-x="543" d="M35 169q0 18 13 30t31 12q28 0 39 -29h1q6 -19 13 -30q45 -73 133 -73q68 0 112.5 42.5t44.5 110.5q0 56 -42 94q-27 24 -88 52q-106 48 -128 61q-69 41 -92 102q-9 24 -9 63q0 92 70 146q63 49 158 49q66 0 129 -48q42 -32 42 -56q0 -18 -12.5 -29.5t-30.5 -11.5 q-17 0 -31 15v0q-40 51 -113 51q-47 0 -85 -31q-41 -32 -41 -78q0 -80 99 -123q33 -14 88 -37q32 -13 81 -46q92 -62 92 -168q0 -125 -118 -202q-52 -34 -132 -34q-109 0 -185 84q-7 7 -22.5 37t-16.5 38v9zM312 -167q0 -16 -12 -28t-28 -12q-17 0 -28.5 11.5t-11.5 28.5v69 q0 17 11.5 28.5t28.5 11.5t28.5 -11.5t11.5 -28.5v-69z" />
<glyph unicode="&#xe2;" horiz-adv-x="564" d="M179 591q-23 -13 -23 -36q0 -17 11.5 -28.5t28.5 -11.5q12 0 21 5l65 36l65 -36q9 -5 20 -5q17 0 28.5 11.5t11.5 28.5q0 23 -21 35v0l-84 47q-9 5 -20 5q-10 0 -18 -4v0zM282 377q-61 0 -104.5 -43.5t-43.5 -104.5q0 -63 42.5 -106t105.5 -43q62 0 105 43.5t43 105.5 q0 61 -43.5 104.5t-104.5 43.5zM510 417v-377q0 -17 -11.5 -28.5t-28.5 -11.5q-16 0 -28 12t-12 28v0v15q-64 -55 -148 -55q-101 0 -165 64t-64 165q0 102 63.5 165t165.5 63q84 0 148 -54v14q0 17 11.5 28.5t28.5 11.5t28.5 -11.5t11.5 -28.5z" />
<glyph unicode="&#xe7;" horiz-adv-x="443" d="M363 326q8 -6 19 -6q17 0 28.5 11.5t11.5 28.5t-13 30q-66 66 -160 66q-100 0 -164 -64.5t-64 -163.5q0 -103 62.5 -166t165.5 -63q88 0 154 60q18 12 18 34q0 17 -11.5 29t-28.5 12q-20 0 -33 -16q-42 -39 -99 -39q-62 0 -105 43.5t-43 105.5q0 61 43.5 104.5 t104.5 43.5q59 0 100 -38q4 -6 14 -13v1zM291 -168q0 -17 -11.5 -28.5t-28.5 -11.5t-28 11.5t-11 28.5v69q0 40 39 40q17 0 28.5 -11.5t11.5 -28.5v-69z" />
<glyph unicode="&#xee;" horiz-adv-x="310" d="M53 591q-23 -13 -23 -36q0 -16 12 -28t28 -12q10 0 21 6l64 36l64 -36q11 -6 21 -6q16 0 28 12t12 28q0 25 -21 35v0l-84 47q-9 5 -20 5q-10 0 -18 -4v0zM195 415v-375q0 -17 -11.5 -28.5t-28.5 -11.5t-28.5 11.5t-11.5 28.5v0v375q0 16 12 28t28 12q17 0 28.5 -11.5 t11.5 -28.5z" />
<glyph unicode="&#xf0;" horiz-adv-x="567" d="M292 580v-79h-7q-75 0 -118 61v0q-2 3 -8 19v11q3 5 11 20v0v0q11 12 28 12q18 0 28 -12h1q1 -2 4 -6q19 -27 54 -27q4 0 7 1zM292 580v-79h7q75 0 118 61v0q3 3 8 19v11q-2 5 -11 20v0v0q-10 12 -28 12q-17 0 -28 -12h-1q-1 -2 -4 -6q-19 -27 -54 -27q-4 0 -7 1z M281 -263q13 0 76 72t73 76v168q-64 -53 -145 -53q-101 0 -165 64t-64 165q0 102 63.5 165t165.5 63q81 0 145 -53q0 22 2 27q10 26 36 26q16 0 29 -10q7 -11 13 -30v0v-533q0 -101 -63.5 -164t-165.5 -63q-81 0 -143.5 50.5t-79.5 130.5v0v7q0 17 11.5 28.5t28.5 11.5 q30 0 38 -29l14 -40q42 -79 131 -79zM285 377q-63 0 -106 -42.5t-43 -105.5q0 -62 43.5 -105.5t105.5 -43.5t105 43.5t43 105.5q0 61 -43.5 104.5t-104.5 43.5z" />
<glyph unicode="&#xf6;" horiz-adv-x="543" d="M271 377q-62 0 -105 -43.5t-43 -105.5q0 -61 43.5 -104.5t104.5 -43.5q63 0 106 42.5t43 105.5q0 62 -43.5 105.5t-105.5 43.5zM271 457q102 0 165.5 -63.5t63.5 -165.5t-63.5 -165t-165.5 -63q-100 0 -164 64.5t-64 163.5q0 103 62.5 166t165.5 63zM216 555 q0 -40 -39 -40q-17 0 -28.5 11.5t-11.5 28.5v69q0 17 11.5 28.5t28.5 11.5t28 -11.5t11 -28.5v-69zM411 554q0 -17 -11.5 -28.5t-28.5 -11.5t-28.5 11.5t-11.5 28.5v69q0 17 11.5 28.5t28.5 11.5q16 0 28 -12t12 -28v-69z" />
<glyph unicode="&#xf7;" horiz-adv-x="378" d="M320 268q17 0 28.5 -11.5t11.5 -28.5q0 -16 -12 -28t-28 -12h-262q-17 0 -28.5 11.5t-11.5 28.5t11.5 28.5t28.5 11.5h262zM189 404q17 0 28.5 -11.5t11.5 -28.5q0 -16 -12 -28t-28 -12q-17 0 -28.5 11.5t-11.5 28.5t11.5 28.5t28.5 11.5zM189 52q17 0 28.5 11.5 t11.5 28.5q0 16 -12 28t-28 12q-17 0 -28.5 -11.5t-11.5 -28.5t11.5 -28.5t28.5 -11.5z" />
<glyph unicode="&#xfb;" horiz-adv-x="472" d="M54 416q0 17 11.5 28.5t28.5 11.5t28.5 -11.5t11.5 -28.5q0 -4 -1 -6v-228q0 -42 30.5 -72t72.5 -30q43 0 73 29.5t30 72.5v0v234q0 40 39 40q17 0 28.5 -11.5t11.5 -28.5v0v-376q0 -17 -11.5 -28.5t-28.5 -11.5q-31 0 -39 32q-47 -32 -103 -32q-76 0 -129 53t-53 129 v234zM133 591q-22 -12 -22 -36q0 -17 11.5 -28.5t28.5 -11.5q11 0 20 5l65 36l65 -36q9 -5 20 -5q17 0 28.5 11.5t11.5 28.5q0 23 -20 35v0l-85 47q-9 5 -20 5q-10 0 -18 -4v0z" />
<glyph unicode="&#xfc;" horiz-adv-x="472" d="M53 418q0 40 41 40q16 0 28 -12t12 -28q0 -5 -1 -7v-228q0 -43 30 -73t73 -30t73 30t30 73v0v235q0 17 11.5 28.5t28.5 11.5t28.5 -11.5t11.5 -28.5v-378q0 -17 -11.5 -28.5t-28.5 -11.5q-33 0 -39 32q-47 -32 -104 -32q-77 0 -130 53t-53 130v235zM345 554 q0 -17 -11.5 -28.5t-28.5 -11.5t-28.5 11.5t-11.5 28.5v69q0 16 12 28t28 12q17 0 28.5 -11.5t11.5 -28.5v-69zM209 553q0 -39 -40 -39q-16 0 -28 11.5t-12 27.5v69q0 17 11.5 28.5t28.5 11.5t28.5 -11.5t11.5 -28.5v-69z" />
<glyph unicode="&#xfe;" horiz-adv-x="364" d="M75 136l44 -29q46 -30 56 -30q66 0 66 59q0 41 -47 61q-74 31 -96 47q-49 34 -49 89q0 80 87 119q11 5 37 5q38 0 73 -18q42 -21 42 -56q0 -15 -12.5 -26.5t-27.5 -11.5q-7 0 -37.5 18.5t-38.5 18.5q-42 0 -42 -45q0 -24 40 -45q21 -8 61 -24l5 -2q13 -5 33 -15 q58 -28 58 -111q0 -45 -28 -83.5t-70 -51.5q-19 -6 -53 -5q-58 2 -103 37q-37 29 -37 59q0 40 39 40zM221 -167q0 -16 -12 -28t-28 -12q-17 0 -28.5 11.5t-11.5 28.5v69q0 17 11.5 28.5t28.5 11.5t28.5 -11.5t11.5 -28.5v-69z" />
<glyph unicode="&#xff;" horiz-adv-x="564" d="M463 86q16 0 27.5 -11.5t11.5 -27.5t-11.5 -27t-27.5 -11h-182v-1q-44 0 -86 18l-64 -104q-13 -21 -31 -21q-33 0 -33 33q0 10 5 18l67 109q-77 66 -77 168q0 95 61.5 156.5t156.5 63.5v0h99l57 93q9 15 28 15q33 0 33 -33q0 -9 -5 -17l-36 -58h7q39 0 39 -38 q0 -16 -11.5 -27.5t-27.5 -11.5h-54l-65 -104h9q16 0 27.5 -11.5t11.5 -27.5t-11.5 -27t-27.5 -11h-56l-60 -98q20 -7 44 -7h182zM331 372h-50q-47 0 -85 -29.5t-52 -74.5h123zM219 191h-75q11 -36 36 -63z" />
<glyph unicode="&#x10b;" horiz-adv-x="520" d="M444 342q17 0 28.5 11.5t11.5 28.5q0 39 -40 39h-216q-82 0 -137 -55.5t-55 -136.5q0 -82 55.5 -137t136.5 -55l1 1h215q40 0 40 39q0 17 -11.5 28.5t-28.5 11.5h-216q-47 0 -80 32.5t-33 79.5t33 80t80 33h216z" />
<glyph unicode="&#x11e;" horiz-adv-x="847" d="M422 461h358q17 0 28.5 -11.5t11.5 -28.5v-4h1v-17q0 -182 -108.5 -291t-290.5 -109q-184 0 -292 108t-108 292t108 292t292 108q142 0 251 -90v0q14 -12 14 -30q0 -16 -12 -28t-28 -12q-21 0 -33 17l-1 -1q-85 64 -191 64q-146 0 -233 -87t-87 -233t87 -233t233 -87 q138 0 224.5 81.5t94.5 219.5h-319q-17 0 -28.5 11.5t-11.5 28.5t11.5 28.5t28.5 11.5zM572 929l1 -1q-58 -72 -151 -72q-96 0 -155 77v1q-10 10 -10 26q0 17 11.5 28.5t28.5 11.5q24 0 36 -21q34 -43 89 -43q59 0 90 45q13 19 34 19q17 0 28.5 -11.5t11.5 -28.5 q0 -19 -14 -31z" />
<glyph unicode="&#x11f;" horiz-adv-x="506" d="M240 580v-79h-8q-75 0 -118 61v0q-1 2 -7 19v11l10 20h1q11 12 28 12q16 0 28 -12h1q1 -2 4 -6q19 -27 53 -27q5 0 8 1zM240 580v-79h7q75 0 118 61v0q3 3 8 19v10l-11 21q-12 12 -28 12q-17 0 -28 -12h-1q-1 -2 -4 -6q-19 -27 -54 -27q-5 0 -7 1zM87 -141l-4 10l-4 4 l-3 5l-5 3l-5 2l-5 3l-4 1h-13l-6 -1l-6 -3l-5 -3l-5 -4l-3 -3l-3 -4l-1 -3l-3 -5l-1 -6l-1 -7l1 -4v-3q17 -79 77 -128t141 -49q97 0 160 62.5t64 159.5v0v521q-1 4 -3 14l-3 6l-3 5q-2 2 -4 5l-6 3l-5 3q-4 1 -10 3h-12q-4 -1 -11 -4q-3 -2 -10 -7l-3 -4l-1 -1.5t-2 -2.5 l-3 -5q0 -3 -2 -11v-16q-61 52 -143 52q-99 0 -161 -62.5t-62 -161.5q0 -98 62.5 -160.5t160.5 -62.5q82 0 143 52v-164h-1q0 -60 -42.5 -103t-102.5 -43q-53 0 -92 32.5t-50 84.5zM232 369q61 0 103 -42.5t42 -103.5q0 -60 -42.5 -102.5t-102.5 -42.5t-102.5 42.5 t-42.5 102.5t42.5 103t102.5 43z" />
<glyph unicode="&#x123;" horiz-adv-x="539" d="M88 342q-39 0 -39 40q0 39 38 39l-37 54q-6 9 -6 20q0 39 40 39q20 0 32 -16v0l67 -97h121q82 0 136.5 -54.5t54.5 -136.5q0 -92 -74 -151l66 -95q7 -10 7 -22q0 -16 -11.5 -27.5t-27.5 -11.5q-24 0 -35 21l-70 100q-22 -6 -46 -6h-216q-39 0 -39 40q0 16 11.5 27.5 t27.5 11.5h211l-157 225h-54zM376 144q40 34 40 86q0 46 -33 79t-79 33h-66z" />
<glyph unicode="&#x124;" horiz-adv-x="441" d="M107 40q0 -17 -11.5 -28t-28.5 -11q-40 0 -40 39v219q0 82 56 138t138 56q83 0 138 -55.5t55 -138.5v-219q0 -16 -11.5 -27.5t-27.5 -11.5q-40 0 -40 39v219q0 47 -33.5 80.5t-80.5 33.5t-80.5 -33.5t-33.5 -80.5v-219z" />
<glyph unicode="&#x130;" horiz-adv-x="242" d="M161 759v-719q0 -17 -11.5 -28.5t-28.5 -11.5t-28.5 11.5t-11.5 28.5v0v719q0 17 11.5 28.5t28.5 11.5t28.5 -11.5t11.5 -28.5zM121 984q17 0 28.5 -11.5t11.5 -28.5v0v-47q0 -17 -11.5 -29t-28.5 -12t-29 12t-12 29v0v47q0 40 41 40z" />
<glyph unicode="&#x131;" horiz-adv-x="172" d="M113 416v-376q0 -40 -39 -40q-17 0 -28.5 11.5t-11.5 28.5v0v376q0 17 11.5 28.5t28.5 11.5q39 0 39 -40z" />
<glyph unicode="&#x15e;" horiz-adv-x="543" d="M35 169q0 18 13 30t31 12q28 0 39 -29h1q6 -19 13 -30q45 -73 133 -73q68 0 112.5 42.5t44.5 110.5q0 56 -42 94q-27 24 -88 52q-106 48 -128 61q-69 41 -92 102q-9 24 -9 63q0 92 70 146q63 49 158 49q66 0 129 -48q42 -32 42 -56q0 -18 -12.5 -29.5t-30.5 -11.5 q-17 0 -31 15v0q-40 51 -113 51q-47 0 -85 -31q-41 -32 -41 -78q0 -80 99 -123q33 -14 88 -37q32 -13 81 -46q92 -62 92 -168q0 -125 -118 -202q-52 -34 -132 -34q-109 0 -185 84q-7 7 -22.5 37t-16.5 38v9zM312 -167q0 -16 -12 -28t-28 -12q-17 0 -28.5 11.5t-11.5 28.5v69 q0 17 11.5 28.5t28.5 11.5t28.5 -11.5t11.5 -28.5v-69z" />
<glyph unicode="&#x15f;" horiz-adv-x="364" d="M75 136l44 -29q46 -30 56 -30q66 0 66 59q0 41 -47 61q-74 31 -96 47q-49 34 -49 89q0 80 87 119q11 5 37 5q38 0 73 -18q42 -21 42 -56q0 -15 -12.5 -26.5t-27.5 -11.5q-7 0 -37.5 18.5t-38.5 18.5q-42 0 -42 -45q0 -24 40 -45q21 -8 61 -24l5 -2q13 -5 33 -15 q58 -28 58 -111q0 -45 -27.5 -83t-70.5 -52q-18 -6 -53 -5q-58 2 -103 37q-37 29 -37 59q0 40 39 40zM221 -167q0 -16 -12 -28t-28 -12q-17 0 -28.5 11.5t-11.5 28.5v69q0 17 11.5 28.5t28.5 11.5t28.5 -11.5t11.5 -28.5v-69z" />
<glyph unicode="&#x192;" horiz-adv-x="400" d="M68 188q-40 0 -40 41q0 17 11.5 28.5t28.5 11.5h99l16 34h-115q-17 0 -28.5 11.5t-11.5 28.5t11.5 29t28.5 12h152l41 88q1 1 1.5 2l0.5 1v0q11 21 35 21q17 0 28.5 -11.5t11.5 -28.5q0 -4 -2 -14v-1l-27 -57h23q40 0 40 -41q0 -17 -11.5 -28.5t-28.5 -11.5h-60l-16 -34 h76q17 0 28.5 -11.5t11.5 -28.5t-11.5 -29t-28.5 -12h-114l-16 -34h130q17 0 28.5 -11.5t11.5 -28.5t-11.5 -29t-28.5 -12h-167l-40 -86q-12 -26 -38 -26q-17 0 -28.5 11.5t-11.5 28.5q0 7 6 20l24 52h-9q-40 0 -40 41q0 17 11.5 28.5t28.5 11.5h46l16 34h-62z" />
<glyph unicode="&#x394;" horiz-adv-x="441" d="M107 40q0 -17 -11.5 -28t-28.5 -11q-40 0 -40 39v219q0 82 56 138t138 56q83 0 138 -55.5t55 -138.5v-219q0 -16 -11.5 -27.5t-27.5 -11.5q-40 0 -40 39v219q0 47 -33.5 80.5t-80.5 33.5t-80.5 -33.5t-33.5 -80.5v-219z" />
<glyph unicode="&#x3c0;" horiz-adv-x="566" d="M439 74q35 0 35 -35q0 -29 -29 -34v-1l-30 -3h-18l-6 1l-10 2l-6 1l-5 1l-5 2l-4 1l-5 2l-8 4l-8 6l-4 2l-3 3l-3 4l-3 3l-3 4l-2 3l-3 4l-2 4l-2 5l-1 4l-2 4l-2 10v5l-1 5v24l24 129l33 147h-128l-77 -343q-5 -38 -43 -38q-18 0 -30.5 12.5t-12.5 30.5q0 4 2 13l73 325 h-6l-2 -1h-6l-2 -1h-2l-4 -2h-1l-2 -1l-1 -1l-2 -1l-6 -6l-1 -2l-2 -1l-5 -10l-1 -3v-1h-1q-11 -23 -36 -23q-17 0 -29 11.5t-12 28.5q0 9 4 17l1 2l2 3l2 6l2 3l1 2l2 3l1 2l2 3l2 2l1 2l2 3l6 6l1 2l4 4l3 2l2 1l2 2l2 1l3 2l2 1l3 2l2 1l6 2l2 2l15 5h3l3 1l4 1l3 1h3 l4 1h3l4 1h7l4 1h12l4 1h341q37 0 37 -38q0 -32 -33 -37v0h-1q-1 0 -3 -1q-1 1 -3 1h-43l-54 -246l-3 -37l1 -1v-2l1 -2v-1l1 -2v-1l1 -2l1 -1v-1l5 -5h1l1 -1l2 -1h1l1 -1l2 -1h3l2 -1h4l2 -1h14z" />
<glyph unicode="&#x2014;" horiz-adv-x="835" d="M58 442h720q16 0 28 -12t12 -28q0 -17 -11.5 -28.5t-28.5 -11.5h-720q-17 0 -28.5 11.5t-11.5 28.5t11.5 28.5t28.5 11.5z" />
<glyph unicode="&#x2018;" horiz-adv-x="160" d="M90 663q40 0 40 -39v-5q0 -72 -67 -99q-5 -2 -9 -2q-20 0 -20 20q0 15 13 19v1q21 8 33 27q-30 8 -30 39q0 17 11.5 28t28.5 11z" />
<glyph unicode="&#x2019;" horiz-adv-x="160" d="M90 663q40 0 40 -39v-5q0 -72 -67 -99q-5 -2 -9 -2q-20 0 -20 20q0 15 13 19v1q21 8 33 27q-30 8 -30 39q0 17 11.5 28t28.5 11z" />
<glyph unicode="&#x201a;" horiz-adv-x="162" d="M89 79q17 0 28.5 -11.5t11.5 -28.5v-5q0 -72 -67 -99q-5 -2 -9 -2q-20 0 -20 20q0 15 14 20v0q22 8 32 27q-29 8 -29 39q0 16 11.5 28t27.5 12z" />
<glyph unicode="&#x201c;" horiz-adv-x="352" d="M129 649q-1 -3 -3 -5v0q-12 -16 -32 -16q-17 0 -28.5 11.5t-11.5 28.5q0 12 7 23l54 86q10 22 36 22q17 0 28.5 -11.5t11.5 -28.5q0 -10 -4 -17h1zM236 588q-2 -2 -3 -4v0q-12 -17 -32 -17q-17 0 -28.5 11.5t-11.5 28.5q0 12 7 23l54 86q11 23 36 23q17 0 28.5 -11.5 t11.5 -28.5q0 -11 -4 -18h1z" />
<glyph unicode="&#x201d;" horiz-adv-x="345" d="M126 82q-1 -3 -3 -5v0q-12 -16 -32 -16q-40 0 -40 40q0 12 7 23l54 86q10 22 36 22q17 0 28.5 -11.5t11.5 -28.5q0 -10 -4 -17h1zM233 21q-2 -2 -3 -5v0q-12 -16 -32 -16q-40 0 -40 40q0 12 7 23l54 86q10 22 36 22q17 0 28.5 -11.5t11.5 -28.5q0 -10 -4 -17h1z" />
<glyph unicode="&#x201e;" horiz-adv-x="345" d="M126 82q-1 -3 -3 -5v0q-12 -16 -32 -16q-40 0 -40 40q0 12 7 23l54 86q10 22 36 22q17 0 28.5 -11.5t11.5 -28.5q0 -10 -4 -17h1zM233 21q-2 -2 -3 -5v0q-12 -16 -32 -16q-40 0 -40 40q0 12 7 23l54 86q10 22 36 22q17 0 28.5 -11.5t11.5 -28.5q0 -10 -4 -17h1z" />
<glyph unicode="&#x2022;" horiz-adv-x="396" d="M198 454q67 0 114.5 -47.5t47.5 -114.5t-47.5 -114.5t-114.5 -47.5t-114.5 47.5t-47.5 114.5t47.5 114.5t114.5 47.5z" />
<glyph unicode="&#x2030;" horiz-adv-x="576" d="M0 -340h568v336h-569v8h569v452h-568v8h568v336h-568v8h577v-1156h-577v8z" />
<glyph unicode="&#x2039;" horiz-adv-x="242" d="M161 759v-719q0 -17 -11.5 -28.5t-28.5 -11.5t-28.5 11.5t-11.5 28.5v0v719q0 17 11.5 28.5t28.5 11.5t28.5 -11.5t11.5 -28.5zM121 984q17 0 28.5 -11.5t11.5 -28.5v0v-47q0 -17 -11.5 -29t-28.5 -12t-29 12t-12 29v0v47q0 40 41 40z" />
<glyph unicode="&#x203a;" horiz-adv-x="172" d="M113 416v-376q0 -40 -39 -40q-17 0 -28.5 11.5t-11.5 28.5v0v376q0 17 11.5 28.5t28.5 11.5q39 0 39 -40z" />
<glyph unicode="&#x2044;" horiz-adv-x="847" d="M422 461h358q17 0 28.5 -11.5t11.5 -28.5v-4h1v-17q0 -182 -108.5 -291t-290.5 -109q-184 0 -292 108t-108 292t108 292t292 108q142 0 251 -90v0q14 -12 14 -30q0 -16 -12 -28t-28 -12q-21 0 -33 17l-1 -1q-85 64 -191 64q-146 0 -233 -87t-87 -233t87 -233t233 -87 q138 0 224.5 81.5t94.5 219.5h-319q-17 0 -28.5 11.5t-11.5 28.5t11.5 28.5t28.5 11.5zM572 929l1 -1q-58 -72 -151 -72q-96 0 -155 77v1q-10 10 -10 26q0 17 11.5 28.5t28.5 11.5q24 0 36 -21q34 -43 89 -43q59 0 90 45q13 19 34 19q17 0 28.5 -11.5t11.5 -28.5 q0 -19 -14 -31z" />
<glyph unicode="&#x2122;" horiz-adv-x="286" d="M94 802q17 0 28.5 -11.5t11.5 -28.5v0v0v-5q0 -72 -67 -99q-5 -2 -9 -2q-20 0 -20 21q0 15 13 19v0q20 7 33 28q-30 8 -30 38q0 17 11.5 28.5t28.5 11.5zM208 802q17 0 28.5 -11.5t11.5 -28.5v0v0v-5q0 -72 -67 -99q-5 -2 -9 -2q-20 0 -20 21q0 15 13 19v0q20 7 33 28 q-30 8 -30 38q0 17 11.5 28.5t28.5 11.5z" />
<glyph unicode="&#x221a;" horiz-adv-x="431" d="M84 189q-17 0 -28.5 11.5t-11.5 28.5t11.5 28t28.5 11h263q16 0 28 -11.5t12 -27.5q0 -17 -11.5 -28.5t-28.5 -11.5h-263zM84 75q-16 0 -28 11.5t-12 27.5q0 17 11.5 28.5t28.5 11.5h263q17 0 28.5 -11.5t11.5 -28.5t-11.5 -28t-28.5 -11h-263zM84 303q-17 0 -28.5 11.5 t-11.5 28.5t11.5 28t28.5 11h263q16 0 28 -11.5t12 -27.5q0 -17 -11.5 -28.5t-28.5 -11.5h-263z" />
<glyph unicode="&#x221e;" horiz-adv-x="553" d="M-8 808h568v-8h-568v8zM-8 464h569v-8h-569v8zM-8 4h569v-8h-569v8zM-8 -340h568v-8h-568v8z" />
<glyph unicode="&#x2248;" horiz-adv-x="441" d="M107 413q0 16 -12 28t-28 12q-17 0 -28.5 -11.5t-11.5 -28.5v-219q0 -83 55.5 -138t138.5 -55q82 0 137.5 55.5t55.5 137.5v219q0 16 -11.5 28t-27.5 12q-17 0 -28.5 -11.5t-11.5 -28.5v-219q0 -47 -33.5 -80.5t-80.5 -33.5t-80.5 33.5t-33.5 80.5v219z" />
<glyph unicode="&#x2264;" horiz-adv-x="520" d="M444 342q17 0 28.5 11.5t11.5 28.5q0 39 -40 39h-216q-82 0 -137 -55.5t-55 -136.5q0 -82 55.5 -137t136.5 -55l1 1h215q40 0 40 39q0 17 -11.5 28.5t-28.5 11.5h-216q-47 0 -80 32.5t-33 79.5t33 80t80 33h216z" />
<glyph unicode="&#x2265;" horiz-adv-x="520" d="M76 342q-17 0 -28.5 11.5t-11.5 28.5q0 39 40 39h216q82 0 137 -55.5t55 -136.5q0 -82 -55.5 -137t-136.5 -55l-1 1h-215q-40 0 -40 39q0 17 11.5 28.5t28.5 11.5h216q47 0 80 32.5t33 79.5t-33 80t-80 33h-216z" />
<glyph unicode="&#x25ca;" horiz-adv-x="523" d="M448 80q39 0 39 -40q0 -16 -11.5 -27.5t-27.5 -11.5h-187q-98 0 -161.5 63.5t-63.5 161.5q0 97 63.5 161t160.5 65v0h182q2 1 6 1q17 0 28 -11.5t11 -28.5q0 -16 -11.5 -27.5t-27.5 -11.5h-187v-1q-49 0 -88 -30t-53 -77h215q16 0 27.5 -11.5t11.5 -27.5q0 -40 -39 -40 h-215q14 -49 52 -78t89 -29v0h187z" />
<glyph unicode="&#x25fc;" horiz-adv-x="455" d="M0 455h455v-455h-455v455z" />
<glyph unicode="&#xf001;" horiz-adv-x="543" d="M35 169q0 18 13 30t31 12q28 0 39 -29h1q6 -19 13 -30q45 -73 133 -73q68 0 112.5 42.5t44.5 110.5q0 56 -42 94q-27 24 -88 52q-106 48 -128 61q-69 41 -92 102q-9 24 -9 63q0 92 70 146q63 49 158 49q66 0 129 -48q42 -32 42 -56q0 -18 -12.5 -29.5t-30.5 -11.5 q-17 0 -31 15v0q-40 51 -113 51q-47 0 -85 -31q-41 -32 -41 -78q0 -80 99 -123q33 -14 88 -37q32 -13 81 -46q92 -62 92 -168q0 -125 -118 -202q-52 -34 -132 -34q-109 0 -185 84q-7 7 -22.5 37t-16.5 38v9zM312 -167q0 -16 -12 -28t-28 -12q-17 0 -28.5 11.5t-11.5 28.5v69 q0 17 11.5 28.5t28.5 11.5t28.5 -11.5t11.5 -28.5v-69z" />
<glyph unicode="&#xf002;" horiz-adv-x="364" d="M75 136l44 -29q46 -30 56 -30q66 0 66 59q0 41 -47 61q-74 31 -96 47q-49 34 -49 89q0 80 87 119q11 5 37 5q38 0 73 -18q42 -21 42 -56q0 -15 -12.5 -26.5t-27.5 -11.5q-7 0 -37.5 18.5t-38.5 18.5q-42 0 -42 -45q0 -24 40 -45q21 -8 61 -24l5 -2q13 -5 33 -15 q58 -28 58 -111q0 -45 -27.5 -83t-70.5 -52q-18 -6 -53 -5q-58 2 -103 37q-37 29 -37 59q0 40 39 40zM221 -167q0 -16 -12 -28t-28 -12q-17 0 -28.5 11.5t-11.5 28.5v69q0 17 11.5 28.5t28.5 11.5t28.5 -11.5t11.5 -28.5v-69z" />
<glyph horiz-adv-x="539" d="M88 342q-39 0 -39 40q0 39 38 39l-37 54q-6 9 -6 20q0 39 40 39q20 0 32 -16v0l67 -97h121q82 0 136.5 -54.5t54.5 -136.5q0 -92 -74 -151l66 -95q7 -10 7 -22q0 -16 -11.5 -27.5t-27.5 -11.5q-24 0 -35 21l-70 100q-22 -6 -46 -6h-216q-39 0 -39 40q0 16 11.5 27.5 t27.5 11.5h211l-157 225h-54zM376 144q40 34 40 86q0 46 -33 79t-79 33h-66z" />
<glyph horiz-adv-x="441" d="M107 40q0 -17 -11.5 -28t-28.5 -11q-40 0 -40 39v219q0 82 56 138t138 56q83 0 138 -55.5t55 -138.5v-219q0 -16 -11.5 -27.5t-27.5 -11.5q-40 0 -40 39v219q0 47 -33.5 80.5t-80.5 33.5t-80.5 -33.5t-33.5 -80.5v-219z" />
<glyph horiz-adv-x="441" d="M107 413q0 16 -12 28t-28 12q-17 0 -28.5 -11.5t-11.5 -28.5v-219q0 -83 55.5 -138t138.5 -55q82 0 137.5 55.5t55.5 137.5v219q0 16 -11.5 28t-27.5 12q-17 0 -28.5 -11.5t-11.5 -28.5v-219q0 -47 -33.5 -80.5t-80.5 -33.5t-80.5 33.5t-33.5 80.5v219z" />
<glyph horiz-adv-x="523" d="M448 80q39 0 39 -40q0 -16 -11.5 -27.5t-27.5 -11.5h-187q-98 0 -161.5 63.5t-63.5 161.5q0 97 63.5 161t160.5 65v0h182q2 1 6 1q17 0 28 -11.5t11 -28.5q0 -16 -11.5 -27.5t-27.5 -11.5h-187v-1q-49 0 -88 -30t-53 -77h215q16 0 27.5 -11.5t11.5 -27.5q0 -40 -39 -40 h-215q14 -49 52 -78t89 -29v0h187z" />
<glyph horiz-adv-x="564" d="M463 86q16 0 27.5 -11.5t11.5 -27.5t-11.5 -27t-27.5 -11h-182v-1q-44 0 -86 18l-64 -104q-13 -21 -31 -21q-33 0 -33 33q0 10 5 18l67 109q-77 66 -77 168q0 95 61.5 156.5t156.5 63.5v0h99l57 93q9 15 28 15q33 0 33 -33q0 -9 -5 -17l-36 -58h7q39 0 39 -38 q0 -16 -11.5 -27.5t-27.5 -11.5h-54l-65 -104h9q16 0 27.5 -11.5t11.5 -27.5t-11.5 -27t-27.5 -11h-56l-60 -98q20 -7 44 -7h182zM331 372h-50q-47 0 -85 -29.5t-52 -74.5h123zM219 191h-75q11 -36 36 -63z" />
<glyph horiz-adv-x="459" d="M365 398q17 0 29 -12t12 -29t-12 -29t-29 -12h-65l-58 -126h123q17 0 29 -12t12 -29t-12 -29t-29 -12h-160l-50 -110h-1q-10 -22 -36 -22q-17 0 -29 12t-12 29q0 9 3 16v0l34 75h-19q-17 0 -29 12t-12 29t12 29t29 12h57l58 126h-115q-17 0 -29 12t-12 29t12 29t29 12 h152l47 103q12 27 39 27q17 0 29 -12t12 -29q0 -7 -3 -15v0l-34 -74h28z" />
<glyph horiz-adv-x="400" d="M68 188q-40 0 -40 41q0 17 11.5 28.5t28.5 11.5h99l16 34h-115q-17 0 -28.5 11.5t-11.5 28.5t11.5 29t28.5 12h152l41 88q1 1 1.5 2l0.5 1v0q11 21 35 21q17 0 28.5 -11.5t11.5 -28.5q0 -4 -2 -14v-1l-27 -57h23q40 0 40 -41q0 -17 -11.5 -28.5t-28.5 -11.5h-60l-16 -34 h76q17 0 28.5 -11.5t11.5 -28.5t-11.5 -29t-28.5 -12h-114l-16 -34h130q17 0 28.5 -11.5t11.5 -28.5t-11.5 -29t-28.5 -12h-167l-40 -86q-12 -26 -38 -26q-17 0 -28.5 11.5t-11.5 28.5q0 7 6 20l24 52h-9q-40 0 -40 41q0 17 11.5 28.5t28.5 11.5h46l16 34h-62z" />
<glyph horiz-adv-x="431" d="M84 189q-17 0 -28.5 11.5t-11.5 28.5t11.5 28t28.5 11h263q16 0 28 -11.5t12 -27.5q0 -17 -11.5 -28.5t-28.5 -11.5h-263zM84 75q-16 0 -28 11.5t-12 27.5q0 17 11.5 28.5t28.5 11.5h263q17 0 28.5 -11.5t11.5 -28.5t-11.5 -28t-28.5 -11h-263zM84 303q-17 0 -28.5 11.5 t-11.5 28.5t11.5 28t28.5 11h263q16 0 28 -11.5t12 -27.5q0 -17 -11.5 -28.5t-28.5 -11.5h-263z" />
<glyph horiz-adv-x="396" d="M198 454q67 0 114.5 -47.5t47.5 -114.5t-47.5 -114.5t-114.5 -47.5t-114.5 47.5t-47.5 114.5t47.5 114.5t114.5 47.5z" />
<glyph horiz-adv-x="295" d="M148 800q49 0 84.5 -35.5t35.5 -84.5q0 -50 -35 -85t-85 -35q-51 0 -86 34.5t-35 85.5q0 50 35.5 85t85.5 35zM148 720q-17 0 -28.5 -11.5t-11.5 -28.5t11.5 -28.5t28.5 -11.5t28.5 11.5t11.5 28.5q0 16 -12 28t-28 12z" />
<glyph horiz-adv-x="654" d="M367 40v347l258 346q11 11 11 27q0 17 -11.5 28.5t-28.5 11.5q-21 0 -33 -18v0l-236 -315l-237 316q-13 17 -32 17q-17 0 -28.5 -11.5t-11.5 -28.5q0 -12 6 -21v0v-1q0 -1 3 -4l260 -348v-346q0 -17 11.5 -28.5t28.5 -11.5t28.5 11.5t11.5 28.5z" />
<glyph horiz-adv-x="520" d="M444 342q17 0 28.5 11.5t11.5 28.5q0 39 -40 39h-216q-82 0 -137 -55.5t-55 -136.5q0 -82 55.5 -137t136.5 -55l1 1h215q40 0 40 39q0 17 -11.5 28.5t-28.5 11.5h-216q-47 0 -80 32.5t-33 79.5t33 80t80 33h216z" />
<glyph horiz-adv-x="160" d="M90 663q40 0 40 -39v-5q0 -72 -67 -99q-5 -2 -9 -2q-20 0 -20 20q0 15 13 19v1q21 8 33 27q-30 8 -30 39q0 17 11.5 28t28.5 11z" />
<glyph horiz-adv-x="520" d="M76 342q-17 0 -28.5 11.5t-11.5 28.5q0 39 40 39h216q82 0 137 -55.5t55 -136.5q0 -82 -55.5 -137t-136.5 -55l-1 1h-215q-40 0 -40 39q0 17 11.5 28.5t28.5 11.5h216q47 0 80 32.5t33 79.5t-33 80t-80 33h-216z" />
<glyph horiz-adv-x="539" d="M451 342q17 0 28.5 11.5t11.5 28.5q0 16 -11.5 27.5t-27.5 11.5l37 54q6 9 6 20q0 16 -11.5 27.5t-27.5 11.5q-22 0 -32 -16h-1l-67 -97h-120q-82 0 -137 -54.5t-55 -136.5q0 -92 74 -151l-66 -95q-7 -10 -7 -22q0 -39 40 -39q25 0 35 21l69 100q23 -6 47 -6h215 q17 0 28.5 11.5t11.5 28.5q0 39 -40 39h-211l157 225h54zM163 144q-40 34 -40 86q0 48 32.5 80t80.5 32v0v0h65z" />
<glyph horiz-adv-x="1000" />
</font>
</defs>
</svg>
